<?xml version="1.0" standalone="no"?>
<!DOCTYPE svg PUBLIC "-//W3C//DTD SVG 20010904//EN"
 "http://www.w3.org/TR/2001/REC-SVG-20010904/DTD/svg10.dtd">
<svg version="1.0" xmlns="http://www.w3.org/2000/svg"
 width="3158.000000pt" height="560.000000pt" viewBox="0 0 3158.000000 560.000000"
 preserveAspectRatio="xMidYMid meet">

<g transform="translate(0.000000,560.000000) scale(0.100000,-0.100000)"
fill="#000000" stroke="none">
<path d="M5405 5570 c-522 -45 -966 -135 -1505 -306 -1512 -481 -2860 -1428
-3510 -2466 -375 -599 -479 -1207 -288 -1688 216 -545 792 -920 1602 -1044
494 -76 968 -70 1556 20 865 133 1795 466 2600 932 835 482 1501 1072 1917
1697 404 607 534 1196 376 1699 -64 203 -203 420 -370 576 -242 226 -625 415
-1024 504 -402 90 -876 116 -1354 76z m-158 -1010 c331 -23 657 -124 838 -261
141 -107 259 -284 291 -439 51 -241 -77 -581 -305 -809 -259 -259 -679 -416
-922 -345 -67 20 -133 83 -142 136 -13 85 43 213 150 344 49 58 64 69 171 120
64 31 118 57 120 59 7 6 -38 82 -71 120 -53 61 -116 89 -214 93 -127 6 -260
-43 -391 -145 -46 -36 -63 -43 -99 -43 -72 0 -104 21 -183 116 -41 49 -105
124 -142 166 l-69 77 17 28 c10 15 26 38 37 50 19 21 19 22 -3 52 -12 17 -26
31 -31 31 -5 0 -139 -91 -297 -202 -343 -240 -342 -240 -342 -249 0 -4 13 -21
30 -39 l29 -31 46 31 c62 43 145 80 178 80 20 0 30 -7 37 -24 15 -41 -6 -87
-65 -136 -29 -25 -54 -48 -54 -52 -1 -4 18 -17 42 -29 64 -33 174 -37 257 -9
75 25 107 47 172 112 26 27 51 48 56 48 5 0 17 -16 27 -36 13 -27 15 -42 7
-58 -9 -20 -254 -305 -365 -425 l-40 -43 -69 7 c-210 20 -391 120 -617 339
-156 152 -277 310 -325 427 l-15 36 49 34 c453 315 662 446 925 574 376 184
714 281 1035 298 30 2 66 4 80 5 14 1 89 -3 167 -8z m-2777 -167 c12 -21 47
-109 77 -197 96 -281 194 -489 331 -709 116 -184 191 -278 341 -427 194 -193
384 -319 663 -441 65 -29 122 -57 127 -63 7 -9 55 -155 87 -264 6 -21 56 20
123 101 87 107 85 106 109 50 11 -27 28 -77 38 -112 20 -74 18 -76 90 57 25
45 48 82 51 82 3 0 34 -22 69 -50 35 -27 66 -50 69 -50 3 0 3 10 1 23 -3 12
-8 47 -11 78 l-6 56 68 5 c37 3 93 3 125 -1 47 -6 63 -13 100 -48 57 -52 120
-68 232 -60 165 12 368 81 755 256 240 109 271 122 271 113 -2 -39 -181 -297
-321 -462 -289 -340 -728 -731 -1071 -954 -315 -205 -710 -358 -1072 -416
-344 -54 -682 -52 -871 7 -86 27 -85 30 33 97 108 62 233 146 216 146 -5 0
-63 -7 -129 -15 -309 -40 -551 -8 -768 101 -95 48 -231 142 -285 196 l-42 44
112 -24 c158 -33 406 -35 520 -4 43 11 90 28 105 36 l28 14 -35 6 c-19 2 -78
10 -130 17 -247 30 -465 110 -645 235 -101 71 -306 264 -280 264 3 0 69 -16
146 -35 190 -48 277 -64 385 -72 98 -6 212 3 198 17 -5 5 -49 23 -99 40 -216
76 -392 179 -512 302 -69 70 -151 174 -142 182 2 2 58 -9 124 -25 278 -66 486
-99 630 -99 40 0 64 4 60 10 -3 5 -63 28 -133 50 -230 75 -345 140 -468 265
-53 55 -82 95 -117 166 -75 153 -79 149 80 73 398 -191 614 -253 876 -254 103
0 287 18 299 29 4 3 -47 105 -113 226 -434 793 -522 1103 -389 1366 21 40 68
109 75 109 2 0 13 -17 25 -37z m-354 -559 c93 -157 327 -487 402 -566 39 -42
72 -82 72 -89 0 -9 -24 -10 -95 -5 -129 10 -183 26 -294 86 -51 28 -95 49 -97
48 -2 -2 86 -64 194 -138 273 -185 455 -314 471 -334 8 -9 11 -19 8 -22 -16
-16 -230 -35 -332 -30 -200 10 -323 61 -450 189 -72 71 -90 97 -139 197 -52
107 -128 351 -114 366 7 7 65 -28 163 -97 73 -52 155 -99 171 -99 3 0 -6 20
-21 45 -48 83 -65 149 -65 255 0 140 34 297 63 287 6 -2 34 -43 63 -93z m2109
-229 c77 -85 77 -86 64 -117 -18 -45 -66 -96 -109 -118 -34 -17 -110 -37 -110
-28 0 2 9 29 20 61 35 99 24 143 -46 183 -16 9 -17 13 -5 27 10 13 99 77 106
77 2 0 37 -38 80 -85z m425 -325 c-14 -11 -29 -20 -34 -20 -5 0 -1 -9 8 -19
25 -28 16 -54 -22 -65 -26 -7 -36 -5 -51 8 -16 14 -24 15 -40 6 -17 -9 -19
-15 -11 -30 14 -27 24 -31 72 -32 35 0 47 5 70 31 18 20 28 43 28 62 0 17 4
28 10 24 29 -18 -5 -105 -52 -131 -48 -27 -118 -12 -141 31 l-13 27 -67 -65
c-101 -97 -80 -59 26 47 92 94 169 145 217 145 l25 1 -25 -20z"/>
<path d="M4938 4391 c-57 -38 -123 -87 -148 -109 -42 -37 -44 -41 -32 -66 18
-40 40 -43 95 -12 27 15 53 24 57 19 4 -4 42 -53 85 -108 98 -124 305 -372
371 -443 l49 -53 47 48 46 48 -239 288 c-131 158 -239 290 -239 293 0 3 18 29
40 56 22 28 40 54 40 59 0 9 -49 49 -61 49 -4 0 -54 -31 -111 -69z"/>
<path d="M4579 4145 c-56 -18 -133 -84 -159 -136 -44 -86 -7 -166 81 -176 47
-5 68 2 169 57 30 16 58 30 63 30 10 0 9 -54 -3 -85 -11 -29 -57 -52 -124 -61
-47 -7 -56 -19 -56 -77 0 -26 2 -28 33 -23 17 3 102 10 187 16 228 16 217 13
228 63 5 23 7 45 5 50 -2 4 -42 7 -89 7 -49 0 -84 4 -84 10 0 5 9 44 21 87 18
63 19 83 10 114 -12 40 -59 92 -105 116 -41 21 -123 25 -177 8z m79 -91 c14
-10 22 -26 22 -44 0 -59 -96 -94 -140 -50 -24 24 -25 38 -4 68 29 41 84 53
122 26z"/>
<path d="M2423 4268 c-43 -54 -49 -220 -13 -363 65 -260 228 -603 513 -1080
75 -125 76 -119 -22 -156 -91 -34 -179 -49 -297 -49 -197 0 -365 40 -693 166
-107 41 -196 73 -198 71 -9 -10 66 -102 120 -147 118 -97 294 -166 620 -244
179 -43 189 -48 156 -69 -13 -9 -60 -28 -104 -43 -142 -48 -266 -45 -604 12
-199 33 -197 33 -131 -26 237 -214 520 -316 822 -294 105 7 130 0 121 -36 -3
-11 -7 -20 -8 -20 -1 0 -58 -15 -126 -32 l-124 -33 -327 1 -328 2 88 -64 c254
-187 611 -268 927 -210 50 9 116 16 148 16 53 0 57 -1 57 -24 0 -13 -6 -28
-12 -34 -23 -18 -329 -123 -432 -147 -105 -25 -206 -40 -341 -51 l-80 -6 25
-21 c41 -33 159 -85 245 -108 60 -16 123 -22 253 -26 295 -10 493 30 750 148
48 23 110 50 137 61 l50 20 -30 -32 c-32 -34 -198 -148 -441 -303 -82 -53
-158 -105 -167 -115 -17 -19 -15 -19 50 -25 124 -12 429 -7 550 8 511 66 965
252 1391 572 274 206 493 406 711 648 182 202 326 385 304 385 -5 0 -99 -36
-208 -80 -333 -134 -529 -190 -664 -190 -81 0 -169 26 -215 62 -45 36 -97 57
-143 58 -39 0 -40 -2 -18 -160 8 -58 15 -111 15 -118 0 -23 -52 13 -118 82
-63 65 -97 86 -112 69 -4 -4 -38 -66 -74 -138 -37 -71 -71 -133 -75 -138 -4
-4 -25 59 -47 139 l-40 146 -35 -34 c-19 -19 -63 -67 -98 -107 -36 -41 -67
-69 -72 -64 -5 5 -29 70 -53 145 -25 75 -51 150 -60 166 -24 46 -65 75 -172
122 -145 62 -207 95 -302 157 -325 214 -672 639 -857 1050 -31 70 -84 199
-117 287 -73 196 -81 212 -95 194z"/>
<path d="M2065 3721 c-16 -51 16 -214 58 -294 34 -65 68 -95 142 -128 50 -22
146 -51 152 -45 3 2 -319 460 -337 480 -4 4 -11 -1 -15 -13z"/>
<path d="M1865 3343 c44 -179 190 -369 336 -438 96 -45 195 -65 322 -65 87 0
99 2 87 14 -22 21 -737 516 -745 516 -4 0 -4 -12 0 -27z"/>
<path d="M10440 4350 c-154 -24 -224 -41 -365 -92 -309 -112 -511 -234 -706
-428 -154 -153 -225 -261 -279 -423 -28 -86 -22 -121 30 -180 41 -46 99 -74
165 -79 43 -3 55 8 55 50 1 124 165 369 357 535 255 219 456 333 726 411 119
34 292 60 317 46 47 -25 44 -42 -32 -146 -109 -150 -385 -571 -478 -729 -121
-208 -284 -542 -329 -680 l-40 -120 -38 -9 c-310 -71 -493 -162 -629 -310
-145 -158 -199 -291 -192 -475 3 -88 6 -104 40 -172 73 -148 187 -229 403
-285 87 -23 121 -27 265 -28 141 -1 176 2 245 21 284 78 563 292 830 636 180
231 434 689 660 1187 103 227 135 299 280 645 37 88 92 212 122 275 53 112 54
116 39 147 -28 58 -210 186 -230 161 -2 -1 -24 -57 -49 -123 -106 -280 -336
-802 -454 -1035 -130 -256 -267 -444 -482 -660 -133 -135 -239 -213 -339 -250
-131 -50 -211 9 -187 136 l6 36 55 -6 c30 -3 79 -9 109 -12 l56 -6 -22 36
c-29 49 -104 106 -140 106 -16 0 -29 1 -29 3 0 2 20 56 45 121 59 157 326 668
449 860 68 106 246 416 301 524 56 109 57 115 46 152 -13 45 -90 118 -161 153
-62 31 -245 34 -420 7z m294 -2036 c-256 -459 -440 -688 -681 -845 -90 -59
-155 -84 -259 -100 -204 -31 -405 47 -519 202 -93 126 -99 280 -17 449 57 117
149 203 293 274 105 52 290 112 303 98 3 -3 6 -15 6 -26 1 -35 44 -130 80
-174 41 -51 138 -92 218 -92 168 0 367 98 571 282 36 31 66 56 68 54 2 -2 -26
-57 -63 -122z"/>
<path d="M14163 4058 c-5 -7 -18 -35 -27 -63 -46 -140 -184 -457 -292 -675
-255 -511 -346 -759 -369 -1006 l-7 -70 33 -29 c46 -38 107 -65 151 -65 36 0
37 0 42 48 22 182 42 260 113 441 48 123 99 196 217 316 93 93 218 196 235
193 40 -8 20 -94 -68 -301 -27 -62 -68 -170 -91 -242 -76 -229 -58 -365 55
-427 59 -32 155 -38 225 -13 63 22 157 94 243 184 41 45 77 81 80 81 2 0 9
-25 16 -55 16 -71 60 -127 133 -172 47 -29 70 -37 126 -41 116 -8 215 39 355
167 l67 63 0 -34 c0 -41 39 -125 71 -155 40 -37 95 -54 177 -55 124 -1 212 49
347 201 l80 89 16 -56 c23 -84 38 -108 104 -156 72 -54 125 -70 209 -64 87 7
182 59 285 154 l80 75 6 -38 c12 -71 26 -102 65 -142 45 -46 89 -61 187 -64
116 -3 216 59 359 221 72 83 249 345 342 509 18 32 54 86 79 121 44 58 49 62
87 62 23 0 78 9 124 19 45 10 82 16 82 14 0 -3 -15 -22 -32 -42 -75 -84 -296
-399 -335 -476 -72 -141 -89 -235 -54 -310 23 -52 81 -102 127 -111 44 -8 166
1 217 16 59 18 215 128 297 210 l75 75 0 -90 c0 -101 19 -153 68 -189 25 -18
43 -21 130 -20 78 0 110 5 137 19 71 37 182 129 241 201 34 41 64 74 66 74 3
0 2 -12 -2 -27 -4 -16 -10 -59 -15 -98 -6 -55 -4 -75 7 -93 19 -31 128 -82
176 -82 l37 0 0 44 c0 105 48 291 127 488 35 86 141 218 277 343 150 138 176
149 176 76 0 -44 -22 -109 -77 -236 -57 -128 -131 -353 -142 -428 -26 -182 56
-287 224 -287 105 0 188 45 311 165 l64 63 0 -63 c0 -134 89 -187 260 -155 62
12 124 49 230 136 133 110 224 216 356 419 54 83 56 89 39 101 -35 26 -71 17
-103 -23 -16 -21 -35 -48 -41 -61 -21 -40 -205 -254 -273 -318 -71 -66 -185
-131 -211 -121 -27 10 -21 65 17 172 33 92 120 260 288 559 43 76 78 147 78
158 0 73 -136 179 -210 163 -25 -5 -33 -17 -65 -98 -20 -51 -54 -124 -75 -162
-21 -39 -70 -140 -109 -224 -106 -227 -245 -408 -397 -517 -63 -45 -100 -55
-110 -29 -8 20 12 134 40 225 13 41 65 172 116 290 107 247 130 311 130 354 0
40 -46 97 -106 132 -37 22 -54 26 -95 22 -64 -7 -237 -91 -301 -147 -25 -23
-48 -41 -51 -41 -3 0 73 157 169 348 110 218 178 364 181 390 5 41 3 45 -48
96 -42 42 -67 58 -111 71 -83 24 -92 18 -123 -76 -15 -44 -44 -119 -65 -167
l-37 -87 -109 -8 c-60 -4 -136 -11 -169 -16 -33 -5 -61 -8 -63 -6 -1 1 18 45
43 97 25 52 45 102 45 110 0 25 -58 96 -100 123 -22 14 -63 30 -91 36 -63 14
-69 9 -99 -86 -29 -89 -89 -241 -129 -324 l-30 -64 -128 -67 c-138 -71 -243
-135 -243 -148 0 -17 25 -32 52 -32 15 0 72 23 127 50 55 28 105 50 111 50 6
0 -29 -78 -79 -172 -49 -95 -115 -231 -145 -302 -31 -71 -75 -161 -97 -200
-23 -39 -56 -95 -73 -124 -43 -74 -203 -241 -267 -278 -76 -44 -104 -49 -130
-23 -26 26 -21 76 16 156 37 82 153 243 428 595 34 44 70 144 63 172 -6 22
-49 53 -104 76 -30 12 -36 11 -61 -8 -70 -51 -382 -184 -397 -169 -3 3 24 49
60 103 83 122 86 148 22 209 -24 23 -65 49 -90 58 -44 15 -47 15 -53 -1 -3 -9
-33 -61 -66 -115 -99 -165 -128 -262 -93 -313 13 -18 8 -29 -61 -134 -41 -63
-86 -137 -100 -165 -56 -109 -205 -318 -299 -417 -48 -50 -145 -103 -171 -93
-38 14 13 229 96 410 43 93 39 140 -14 195 -72 74 -215 115 -215 62 0 -43 -61
-227 -91 -278 -99 -163 -309 -364 -381 -364 -130 0 -142 178 -32 442 110 264
279 447 442 478 93 17 146 -36 159 -161 7 -72 21 -89 72 -89 59 0 67 16 53
111 -15 102 -40 158 -88 195 -53 42 -94 54 -183 54 -99 0 -174 -20 -291 -77
-85 -41 -107 -58 -211 -162 -115 -116 -176 -200 -259 -361 -64 -123 -215 -328
-282 -385 -42 -36 -127 -78 -144 -71 -10 4 -14 23 -14 65 0 63 50 225 109 353
35 74 37 94 17 141 -17 41 -59 77 -130 112 -71 35 -112 29 -121 -18 -29 -138
-58 -216 -113 -297 -60 -90 -233 -273 -292 -309 -52 -31 -100 -28 -136 10 -29
30 -29 32 -28 137 1 105 2 110 53 239 111 281 271 465 440 509 52 13 64 13 94
1 42 -18 73 -77 83 -162 8 -74 16 -85 65 -85 51 0 71 22 64 68 -27 175 -34
189 -99 241 -54 43 -104 54 -216 49 -80 -4 -109 -11 -182 -41 -120 -50 -182
-92 -285 -194 -98 -96 -171 -200 -260 -368 -99 -186 -220 -328 -356 -416 -87
-57 -102 -44 -82 71 23 128 44 188 170 475 62 143 115 288 115 317 0 23 -84
114 -124 135 -68 35 -231 -20 -368 -125 -38 -28 -68 -49 -68 -46 0 3 58 119
129 257 183 357 233 469 225 501 -8 34 -79 107 -125 128 -52 25 -113 33 -126
16z m5357 -461 c0 -8 -56 -126 -124 -263 -68 -137 -144 -295 -169 -350 -77
-174 -236 -432 -321 -522 -89 -94 -219 -183 -238 -164 -16 16 -10 124 12 204
49 181 189 490 414 920 l76 146 68 12 c56 10 165 22 260 29 12 0 22 -5 22 -12z"/>
<path d="M20829 3998 c0 -2 -9 -46 -19 -98 -10 -52 -26 -120 -35 -150 -9 -30
-19 -85 -22 -121 -5 -59 -3 -69 21 -107 26 -41 130 -121 142 -109 4 3 22 43
40 88 19 46 49 108 68 139 40 68 70 155 60 172 -47 80 -177 188 -225 188 -16
0 -29 -1 -30 -2z"/>
<path d="M13270 3461 c-36 -32 -90 -93 -120 -135 -30 -42 -81 -111 -113 -154
-31 -42 -114 -165 -184 -272 -69 -107 -145 -215 -169 -240 -23 -25 -59 -79
-78 -121 -44 -92 -129 -186 -203 -223 -29 -14 -59 -26 -67 -26 -50 0 -9 202
84 405 56 124 43 174 -67 247 -81 54 -145 62 -156 20 -60 -224 -60 -226 -120
-315 -63 -94 -202 -243 -276 -296 -49 -35 -102 -41 -139 -16 -27 19 -56 115
-49 159 4 17 11 57 16 88 13 78 104 286 167 384 125 193 312 314 419 270 38
-16 70 -82 80 -171 4 -33 13 -63 19 -67 20 -14 83 -9 96 7 18 21 6 154 -18
208 -25 55 -90 113 -144 128 -26 7 -81 9 -138 7 -81 -4 -109 -11 -184 -42
-123 -51 -182 -92 -289 -198 -94 -94 -150 -171 -230 -316 -50 -91 -63 -124
-83 -220 -19 -91 -18 -128 7 -208 25 -82 80 -142 166 -181 46 -21 66 -25 126
-21 101 5 185 49 292 150 46 43 85 78 89 78 3 0 6 -17 6 -37 1 -77 57 -156
133 -188 60 -25 181 -23 240 4 54 25 55 26 146 108 37 34 66 53 68 46 11 -32
63 -96 94 -117 78 -52 146 -70 269 -70 105 0 119 2 165 26 97 51 135 86 165
151 41 88 50 158 38 312 -12 158 -5 339 17 420 16 62 89 185 156 267 22 26 39
54 39 62 0 20 -102 102 -158 127 -24 10 -44 19 -45 19 -1 0 -31 -26 -67 -59z
m-219 -508 c-15 -54 -14 -178 5 -344 24 -218 8 -305 -69 -360 -49 -36 -83 -36
-147 -4 -68 34 -100 86 -100 160 0 49 4 59 35 94 26 28 50 42 92 55 57 16 58
16 106 -8 l47 -25 0 25 c0 33 -29 135 -43 152 -6 8 -28 21 -49 29 -31 12 -36
18 -27 32 5 9 31 50 57 92 80 129 94 150 99 145 2 -2 0 -21 -6 -43z"/>
<path d="M22642 3369 c-130 -20 -224 -70 -316 -170 -103 -111 -150 -256 -149
-464 0 -199 51 -340 163 -452 109 -109 230 -157 395 -156 248 0 407 105 489
324 l25 66 -115 35 c-63 19 -114 32 -114 27 0 -29 -47 -124 -80 -162 -58 -66
-123 -90 -225 -85 -90 5 -138 25 -194 80 -70 68 -101 174 -101 344 0 175 32
269 115 342 145 127 393 83 461 -83 l18 -41 105 23 c58 13 109 24 113 26 4 1
-7 36 -24 77 -52 125 -164 220 -300 256 -71 18 -192 24 -266 13z"/>
<path d="M24490 2750 l0 -610 115 0 115 0 0 610 0 610 -115 0 -115 0 0 -610z"/>
<path d="M24960 2750 l0 -610 115 0 115 0 0 610 0 610 -115 0 -115 0 0 -610z"/>
<path d="M27880 3255 l0 -105 115 0 115 0 0 105 0 105 -115 0 -115 0 0 -105z"/>
<path d="M30430 3245 l0 -115 55 0 c53 0 55 -1 55 -27 0 -47 -37 -108 -80
-132 -22 -12 -40 -26 -40 -31 0 -17 34 -80 42 -80 24 0 90 44 125 84 53 60 63
97 70 269 l6 147 -116 0 -117 0 0 -115z"/>
<path d="M27448 3263 l-108 -66 0 -84 0 -83 -55 0 -55 0 0 -90 0 -90 54 0 54
0 5 -282 c5 -294 10 -334 49 -376 47 -50 95 -66 193 -65 50 1 108 7 130 15
l39 13 -2 50 c-1 28 -5 67 -8 87 -5 35 -7 36 -30 27 -14 -5 -45 -9 -68 -9 -76
0 -76 1 -76 288 l0 252 85 0 85 0 0 90 0 90 -85 0 -85 0 0 150 c0 83 -3 150
-7 149 -5 0 -56 -30 -115 -66z"/>
<path d="M23785 3043 c-16 -2 -55 -11 -85 -19 -248 -70 -372 -363 -270 -636
85 -228 389 -333 628 -217 326 159 331 666 9 824 -92 44 -187 61 -282 48z
m128 -182 c39 -15 96 -70 119 -115 31 -58 37 -213 13 -286 -20 -60 -70 -121
-119 -144 -44 -21 -128 -21 -169 0 -93 47 -137 133 -137 269 0 135 43 220 135
268 33 18 121 22 158 8z"/>
<path d="M25692 3039 c-140 -24 -256 -129 -303 -279 -30 -92 -30 -269 -1 -359
37 -114 117 -205 217 -246 19 -9 69 -20 111 -26 144 -20 280 18 362 101 39 40
92 125 92 149 0 5 -48 15 -107 23 l-108 14 -20 -35 c-31 -54 -78 -81 -142 -81
-110 0 -203 87 -203 190 l0 30 306 0 307 0 -7 73 c-15 163 -46 251 -115 329
-51 58 -142 104 -231 118 -73 11 -84 11 -158 -1z m176 -188 c20 -10 45 -27 54
-38 24 -27 48 -87 48 -123 l0 -30 -191 0 -192 0 7 42 c16 102 89 168 184 168
32 0 67 -7 90 -19z"/>
<path d="M26650 3039 c-78 -13 -170 -61 -220 -115 -155 -169 -155 -509 0 -678
79 -86 231 -136 365 -120 180 20 286 98 341 248 l22 61 -112 15 -111 16 -11
-32 c-39 -104 -87 -139 -190 -132 -130 8 -184 80 -192 257 -6 127 8 194 50
245 38 47 81 66 148 66 86 0 137 -32 162 -101 l13 -35 113 16 112 15 -34 70
c-58 121 -142 183 -276 204 -74 12 -103 12 -180 0z"/>
<path d="M28685 3043 c-16 -2 -55 -11 -85 -19 -248 -70 -372 -363 -270 -636
85 -228 389 -333 628 -217 326 159 331 666 9 824 -92 44 -187 61 -282 48z
m128 -182 c39 -15 96 -70 119 -115 31 -58 37 -213 13 -286 -20 -60 -70 -121
-119 -144 -44 -21 -128 -21 -169 0 -93 47 -137 133 -137 269 0 135 43 220 135
268 33 18 121 22 158 8z"/>
<path d="M29815 3036 c-70 -17 -110 -41 -161 -92 l-44 -43 0 64 0 65 -110 0
-110 0 0 -445 0 -445 114 0 115 0 3 298 3 297 27 47 c34 56 92 88 162 88 56 0
96 -21 122 -64 17 -28 19 -58 22 -348 l3 -318 116 0 115 0 -4 348 c-5 384 -9
408 -71 472 -67 69 -199 103 -302 76z"/>
<path d="M31075 3043 c-83 -11 -137 -27 -178 -53 -134 -84 -163 -259 -63 -368
53 -58 111 -83 305 -134 204 -53 211 -56 211 -114 0 -60 -62 -94 -171 -94
-105 0 -166 31 -198 100 l-16 36 -112 -16 -113 -15 24 -52 c53 -112 163 -183
319 -203 103 -14 235 0 306 31 138 61 208 182 181 312 -23 113 -104 166 -344
228 -218 56 -247 72 -232 132 9 37 45 51 141 55 105 4 146 -12 180 -69 l20
-34 106 14 107 13 -16 40 c-23 59 -93 132 -150 156 -70 31 -215 47 -307 35z"/>
<path d="M27880 2585 l0 -445 115 0 115 0 0 445 0 445 -115 0 -115 0 0 -445z"/>
</g>
</svg>
